<svg width="19" height="17" viewBox="0 0 19 17" fill="none" xmlns="http://www.w3.org/2000/svg">
<path d="M9.49407 0H9.51307C10.2238 0 10.8829 0.233395 11.4114 0.624521H11.4144C11.7798 0.894386 12.0814 1.23846 12.2985 1.63318L15.8333 7.66304L15.8547 7.71135L18.5606 12.3135C18.8486 12.789 19 13.3349 19 13.8925C19 14.3296 18.9074 14.7475 18.7405 15.1264L18.7435 15.1387C18.6173 15.4197 18.4483 15.6803 18.2423 15.9116C18.0072 16.1806 17.7269 16.4082 17.4134 16.5844C16.9455 16.8511 16.4149 16.9941 15.8737 16.9994H15.8209C15.1355 17 14.4688 16.7807 13.9225 16.3749H13.9196C13.5542 16.105 13.2526 15.761 13.0354 15.3662L9.5006 9.33638L9.47922 9.28807L6.76027 4.66499C6.4799 4.19177 6.33258 3.65412 6.33334 3.10689C6.33334 2.7792 6.38559 2.46141 6.48238 2.164L6.48773 2.14537L6.49723 2.12151C6.5376 2.00045 6.58986 1.86076 6.58986 1.86076C6.71446 1.5832 6.88122 1.32574 7.08448 1.09713L7.13436 1.03951L7.14624 1.02729V1.02438H7.1492L7.15574 1.01506L7.16227 1.01274C7.38158 0.776082 7.63721 0.574408 7.91994 0.414989C8.38787 0.148347 8.9184 0.00535293 9.45963 0H9.49407ZM3.17321 17H3.1263C2.58513 16.9942 2.0547 16.8513 1.58661 16.585C1.27072 16.4087 0.992824 16.1793 0.757685 15.9122C0.551675 15.6809 0.382696 15.4203 0.256529 15.1392L0.259497 15.127C0.0871284 14.7377 -0.00121709 14.3176 1.2664e-05 13.8931C1.2664e-05 13.314 0.160929 12.775 0.439415 12.3141L3.1453 7.71193L3.16668 7.66362L5.5727 3.56204C5.63149 4.062 5.78884 4.55324 6.04298 5.0014L6.0887 5.07765L8.76074 9.62158V9.61285L8.81359 9.7246L9.0422 10.1186L5.9646 15.3662C5.74742 15.7609 5.44583 16.105 5.08045 16.3749H5.07748C4.53138 16.7809 3.86457 17.0003 3.17915 16.9994L3.17321 17Z" fill="#4A4A4A"/>
</svg>
