<svg width="28" height="26" viewBox="0 0 28 26" fill="none" xmlns="http://www.w3.org/2000/svg">
<rect width="27.3" height="26" rx="3" fill="url(#paint0_linear_2_1684)"/>
<path d="M5.20001 7.4748C5.20001 6.69905 5.50818 5.95506 6.05672 5.40652C6.60527 4.85797 7.34925 4.5498 8.12501 4.5498H19.175C19.9508 4.5498 20.6948 4.85797 21.2433 5.40652C21.7918 5.95506 22.1 6.69905 22.1 7.4748V18.5248C22.1 19.3006 21.7918 20.0445 21.2433 20.5931C20.6948 21.1416 19.9508 21.4498 19.175 21.4498H8.12501C7.34925 21.4498 6.60527 21.1416 6.05672 20.5931C5.50818 20.0445 5.20001 19.3006 5.20001 18.5248V7.4748ZM8.12501 5.8498C7.69404 5.8498 7.28071 6.02101 6.97596 6.32576C6.67122 6.6305 6.50001 7.04383 6.50001 7.4748V18.5248C6.50001 18.8011 6.56891 19.0617 6.69111 19.2899L12.4703 13.1792C12.6221 13.0186 12.8052 12.8907 13.0082 12.8032C13.2112 12.7158 13.4299 12.6707 13.651 12.6707C13.872 12.6707 14.0908 12.7158 14.2938 12.8032C14.4968 12.8907 14.6798 13.0186 14.8317 13.1792L20.6089 19.2892C20.7311 19.0617 20.8 18.8017 20.8 18.5248V7.4748C20.8 7.04383 20.6288 6.6305 20.3241 6.32576C20.0193 6.02101 19.606 5.8498 19.175 5.8498H8.12501ZM8.12501 20.1498H19.175C19.3167 20.1498 19.4532 20.1316 19.5845 20.0978L13.8873 14.0723C13.8569 14.0401 13.8203 14.0145 13.7796 13.997C13.739 13.9795 13.6952 13.9705 13.651 13.9705C13.6067 13.9705 13.563 13.9795 13.5223 13.997C13.4817 14.0145 13.4451 14.0401 13.4147 14.0723L7.71551 20.0978C7.84681 20.1316 7.98396 20.1498 8.12501 20.1498ZM18.2 9.7498C18.2 9.49122 18.0973 9.24322 17.9144 9.06038C17.7316 8.87753 17.4836 8.7748 17.225 8.7748C16.9664 8.7748 16.7184 8.87753 16.5356 9.06038C16.3527 9.24322 16.25 9.49122 16.25 9.7498C16.25 10.0084 16.3527 10.2564 16.5356 10.4392C16.7184 10.6221 16.9664 10.7248 17.225 10.7248C17.4836 10.7248 17.7316 10.6221 17.9144 10.4392C18.0973 10.2564 18.2 10.0084 18.2 9.7498ZM19.5 9.7498C19.5 10.3532 19.2603 10.9318 18.8337 11.3585C18.407 11.7851 17.8284 12.0248 17.225 12.0248C16.6216 12.0248 16.043 11.7851 15.6163 11.3585C15.1897 10.9318 14.95 10.3532 14.95 9.7498C14.95 9.14644 15.1897 8.56778 15.6163 8.14114C16.043 7.71449 16.6216 7.4748 17.225 7.4748C17.8284 7.4748 18.407 7.71449 18.8337 8.14114C19.2603 8.56778 19.5 9.14644 19.5 9.7498Z" fill="#F8F8F8"/>
<defs>
<linearGradient id="paint0_linear_2_1684" x1="13.65" y1="0" x2="13.65" y2="26" gradientUnits="userSpaceOnUse">
<stop stop-color="#F45656"/>
<stop offset="1" stop-color="#F55656"/>
</linearGradient>
</defs>
</svg>
