<svg width="18" height="18" viewBox="0 0 18 18" fill="none" xmlns="http://www.w3.org/2000/svg">
<g clip-path="url(#clip0_2_223)">
<path d="M6.75226 6.1875C6.75226 6.63505 6.57447 7.06428 6.258 7.38074C5.94153 7.69721 5.51231 7.875 5.06476 7.875C4.61721 7.875 4.18798 7.69721 3.87152 7.38074C3.55505 7.06428 3.37726 6.63505 3.37726 6.1875C3.37726 5.73995 3.55505 5.31072 3.87152 4.99426C4.18798 4.67779 4.61721 4.5 5.06476 4.5C5.51231 4.5 5.94153 4.67779 6.258 4.99426C6.57447 5.31072 6.75226 5.73995 6.75226 6.1875Z" fill="black" fill-opacity="0.71"/>
<path d="M2.25226 1.125C1.65552 1.125 1.08322 1.36205 0.661268 1.78401C0.239311 2.20597 0.0022583 2.77826 0.0022583 3.375V14.625C0.0022583 15.2217 0.239311 15.794 0.661268 16.216C1.08322 16.6379 1.65552 16.875 2.25226 16.875H15.7523C16.349 16.875 16.9213 16.6379 17.3432 16.216C17.7652 15.794 18.0023 15.2217 18.0023 14.625V3.375C18.0023 2.77826 17.7652 2.20597 17.3432 1.78401C16.9213 1.36205 16.349 1.125 15.7523 1.125H2.25226ZM15.7523 2.25C16.0506 2.25 16.3368 2.36853 16.5478 2.5795C16.7587 2.79048 16.8773 3.07663 16.8773 3.375V10.6875L12.6281 8.49713C12.5226 8.44428 12.4032 8.42594 12.2867 8.44472C12.1702 8.4635 12.0626 8.51843 11.979 8.60175L7.80526 12.7755L4.81276 10.782C4.70471 10.7101 4.57512 10.6777 4.44594 10.6904C4.31676 10.7031 4.19596 10.7601 4.10401 10.8517L1.12726 13.5V3.375C1.12726 3.07663 1.24578 2.79048 1.45676 2.5795C1.66774 2.36853 1.95389 2.25 2.25226 2.25H15.7523Z" fill="black" fill-opacity="0.71"/>
</g>
<defs>
<clipPath id="clip0_2_223">
<rect width="18" height="18" fill="white"/>
</clipPath>
</defs>
</svg>
