<svg width="28" height="26" viewBox="0 0 28 26" fill="none" xmlns="http://www.w3.org/2000/svg">
<rect width="27.3" height="26" rx="3" fill="url(#paint0_linear_570_253)"/>
<path d="M5.19995 7.4748C5.19995 6.69905 5.50812 5.95506 6.05666 5.40652C6.60521 4.85797 7.34919 4.5498 8.12495 4.5498H19.175C19.9507 4.5498 20.6947 4.85797 21.2432 5.40652C21.7918 5.95506 22.1 6.69905 22.1 7.4748V18.5248C22.1 19.3006 21.7918 20.0445 21.2432 20.5931C20.6947 21.1416 19.9507 21.4498 19.175 21.4498H8.12495C7.34919 21.4498 6.60521 21.1416 6.05666 20.5931C5.50812 20.0445 5.19995 19.3006 5.19995 18.5248V7.4748ZM8.12495 5.8498C7.69397 5.8498 7.28065 6.02101 6.9759 6.32576C6.67116 6.6305 6.49995 7.04383 6.49995 7.4748V18.5248C6.49995 18.8011 6.56885 19.0617 6.69105 19.2899L12.4702 13.1792C12.6221 13.0186 12.8051 12.8907 13.0081 12.8032C13.2112 12.7158 13.4299 12.6707 13.6509 12.6707C13.872 12.6707 14.0907 12.7158 14.2937 12.8032C14.4967 12.8907 14.6798 13.0186 14.8317 13.1792L20.6089 19.2892C20.7311 19.0617 20.8 18.8017 20.8 18.5248V7.4748C20.8 7.04383 20.6287 6.6305 20.324 6.32576C20.0193 6.02101 19.6059 5.8498 19.175 5.8498H8.12495V5.8498ZM8.12495 20.1498H19.175C19.3167 20.1498 19.4532 20.1316 19.5845 20.0978L13.8872 14.0723C13.8568 14.0401 13.8202 14.0145 13.7796 13.997C13.7389 13.9795 13.6952 13.9705 13.6509 13.9705C13.6067 13.9705 13.5629 13.9795 13.5223 13.997C13.4817 14.0145 13.445 14.0401 13.4147 14.0723L7.71545 20.0978C7.84675 20.1316 7.9839 20.1498 8.12495 20.1498ZM18.2 9.7498C18.2 9.49122 18.0972 9.24322 17.9144 9.06038C17.7315 8.87753 17.4835 8.7748 17.225 8.7748C16.9664 8.7748 16.7184 8.87753 16.5355 9.06038C16.3527 9.24322 16.25 9.49122 16.25 9.7498C16.25 10.0084 16.3527 10.2564 16.5355 10.4392C16.7184 10.6221 16.9664 10.7248 17.225 10.7248C17.4835 10.7248 17.7315 10.6221 17.9144 10.4392C18.0972 10.2564 18.2 10.0084 18.2 9.7498ZM19.5 9.7498C19.5 10.3532 19.2603 10.9318 18.8336 11.3585C18.407 11.7851 17.8283 12.0248 17.225 12.0248C16.6216 12.0248 16.0429 11.7851 15.6163 11.3585C15.1896 10.9318 14.95 10.3532 14.95 9.7498C14.95 9.14644 15.1896 8.56778 15.6163 8.14114C16.0429 7.71449 16.6216 7.4748 17.225 7.4748C17.8283 7.4748 18.407 7.71449 18.8336 8.14114C19.2603 8.56778 19.5 9.14644 19.5 9.7498V9.7498Z" fill="#F8F8F8"/>
<defs>
<linearGradient id="paint0_linear_570_253" x1="13.65" y1="0" x2="13.65" y2="26" gradientUnits="userSpaceOnUse">
<stop stop-color="#F45656"/>
<stop offset="1" stop-color="#F55656"/>
</linearGradient>
</defs>
</svg>
