<svg width="25" height="17" viewBox="0 0 25 17" fill="none" xmlns="http://www.w3.org/2000/svg">
<path d="M23.5029 0H10.8512C10.2832 0 9.84424 0.464707 9.84424 1.00695C9.84424 1.54918 10.3089 2.01391 10.8512 2.01391H23.4772C24.0452 2.01391 24.4842 1.5492 24.4842 1.00695C24.4842 0.464724 24.0452 0 23.503 0H23.5029Z" fill="black" fill-opacity="0.56"/>
<path d="M20.3532 4.80273H10.8512C10.2832 4.80273 9.84424 5.26744 9.84424 5.80969C9.84424 6.35192 10.3089 6.81664 10.8512 6.81664H20.3532C20.9212 6.81664 21.3601 6.35194 21.3601 5.80969C21.3601 5.26746 20.8954 4.80273 20.3532 4.80273Z" fill="black" fill-opacity="0.56"/>
<path d="M17.2029 9.57935H10.8512C10.2832 9.57935 9.84424 10.0441 9.84424 10.5863C9.84424 11.1285 10.3089 11.5933 10.8512 11.5933H17.2029C17.7709 11.5933 18.2099 11.1285 18.2099 10.5863C18.2099 10.0441 17.7709 9.57935 17.2029 9.57935Z" fill="black" fill-opacity="0.56"/>
<path d="M14.0527 14.3822H10.8511C10.2831 14.3822 9.84412 14.8469 9.84412 15.3892C9.84412 15.9314 10.3088 16.3961 10.8511 16.3961H14.0527C14.6207 16.3961 15.0597 15.9314 15.0597 15.3892C15.0597 14.8469 14.6207 14.3822 14.0527 14.3822V14.3822Z" fill="black" fill-opacity="0.56"/>
<path d="M4.67995 0.310204C4.29255 -0.0771969 3.64726 -0.0771969 3.23405 0.310204L0.290551 3.2537C-0.0968502 3.6411 -0.0968502 4.28639 0.290551 4.6996C0.677952 5.087 1.32324 5.087 1.73646 4.6996L2.94999 3.48607V15.3892C2.94999 15.9572 3.4147 16.3961 3.95694 16.3961C4.49917 16.3961 4.9639 15.9314 4.9639 15.3892L4.96411 3.48607L6.17764 4.6996C6.38423 4.90619 6.64235 5.00948 6.9007 5.00948C7.15883 5.00948 7.41717 4.90619 7.62377 4.6996C8.01117 4.3122 8.01117 3.66692 7.62377 3.2537L4.67995 0.310204Z" fill="black" fill-opacity="0.56"/>
</svg>
