<svg width="23" height="23" viewBox="0 0 23 23" fill="none" xmlns="http://www.w3.org/2000/svg">
<path d="M20.5211 6.38867H2.47888C2.16033 6.38867 1.85482 6.51522 1.62957 6.74047C1.40432 6.96572 1.27777 7.27123 1.27777 7.58978V19.2431C1.27777 19.5617 1.40432 19.8672 1.62957 20.0924C1.85482 20.3177 2.16033 20.4442 2.47888 20.4442H20.5211C20.8397 20.4442 21.1452 20.3177 21.3704 20.0924C21.5957 19.8672 21.7222 19.5617 21.7222 19.2431V7.58978C21.7222 7.27123 21.5957 6.96572 21.3704 6.74047C21.1452 6.51522 20.8397 6.38867 20.5211 6.38867ZM15.4483 13.9467L9.20638 16.7323C9.10919 16.776 9.00261 16.7947 8.89635 16.7866C8.79009 16.7786 8.68752 16.7441 8.59799 16.6864C8.50846 16.6286 8.4348 16.5493 8.38372 16.4558C8.33264 16.3623 8.30577 16.2575 8.30555 16.1509V10.5798C8.30577 10.4732 8.33264 10.3684 8.38372 10.2749C8.4348 10.1814 8.50846 10.1021 8.59799 10.0443C8.68752 9.98653 8.79009 9.95206 8.89635 9.94404C9.00261 9.93602 9.10919 9.9547 9.20638 9.99839L15.4483 12.7776C15.5617 12.8275 15.6581 12.9094 15.7258 13.0132C15.7934 13.117 15.8295 13.2382 15.8295 13.3621C15.8295 13.486 15.7934 13.6073 15.7258 13.7111C15.6581 13.8149 15.5617 13.8967 15.4483 13.9467Z" fill="#4A4A4A"/>
<path d="M19.2561 1.91672C19.2561 1.74728 19.1888 1.58477 19.069 1.46496C18.9492 1.34514 18.7867 1.27783 18.6172 1.27783H4.56168C4.39224 1.27783 4.22973 1.34514 4.10992 1.46496C3.9901 1.58477 3.92279 1.74728 3.92279 1.91672V2.55561H19.2561V1.91672Z" fill="#4A4A4A"/>
<path d="M20.5211 4.47238C20.5211 4.30294 20.4538 4.14044 20.334 4.02062C20.2142 3.90081 20.0516 3.8335 19.8822 3.8335H3.27109C3.10165 3.8335 2.93914 3.90081 2.81933 4.02062C2.69951 4.14044 2.6322 4.30294 2.6322 4.47238V5.11127H20.5211V4.47238Z" fill="#4A4A4A"/>
</svg>
